<svg xmlns="http://www.w3.org/2000/svg" width="29" height="29" viewBox="0 0 29 29" class="symbol symbol-topBarPreview btn-symbol"><g id="Page-1" fill="none" fill-rule="evenodd" stroke="none" stroke-width="1px"><g id="top_bar__preview" fill="#2d4150" stroke="none" stroke-width="1px"><path id="Fill-1" d="M14.32 16.316a2.101 2.101 0 0 1-2.1-2.098c0-1.158.942-2.099 2.1-2.099 1.156 0 2.098.941 2.098 2.1a2.101 2.101 0 0 1-2.099 2.097zm0-5.197a3.102 3.102 0 0 0-3.1 3.1 3.102 3.102 0 0 0 3.1 3.097 3.103 3.103 0 0 0 3.098-3.098 3.103 3.103 0 0 0-3.099-3.099zm0 9.022c-4.874 0-7.39-4.846-7.889-5.923.5-1.078 3.015-5.923 7.888-5.923 4.873 0 7.39 4.845 7.888 5.923-.499 1.077-3.015 5.923-7.888 5.923zm8.915-6.133c-.11-.277-2.78-6.79-8.916-6.79-6.136 0-8.806 6.513-8.916 6.79l-.084.21.084.21c.11.277 2.78 6.79 8.916 6.79 6.136 0 8.806-6.513 8.916-6.79l.084-.21-.084-.21z" stroke="none" fill="#2d4150" stroke-width="1px"></path></g></g></svg>