<svg xmlns="http://www.w3.org/2000/svg" width="26" height="18" preserveAspectRatio="xMidYMid" viewBox="0 0 39 27" class="symbol symbol-animation"><g id="group-1svg" stroke="none" fill="#2d4150" stroke-width="1px"><path id="path-1" fill-rule="evenodd" d="M34.531 15.295l-7.198 7.198a2.545 2.545 0 0 1-3.599 0l-7.198-7.198a2.545 2.545 0 0 1 0-3.599l7.198-7.198a2.545 2.545 0 0 1 3.599 0l7.198 7.198a2.545 2.545 0 0 1 0 3.599zm-21.736-1.039l4.828 6.084-1.994 1.581-4.851-6.114c-1.024-1.374-1.024-3.249-.024-4.592l4.875-6.146 1.994 1.582-4.852 6.116c-.309.416-.309 1.041.024 1.489zm-2.802 3.982l-2.004 1.569-3.91-5.014a2.546 2.546 0 0 1 0-2.594L7.96 6.824l2.062 1.492-3.743 5.175 3.714 4.747z" stroke="none" fill="#2d4150" stroke-width="1px"></path></g></svg>