<svg xmlns="http://www.w3.org/2000/svg" width="18" height="16" viewBox="0 0 18 16" class="symbol symbol-design"><g id="Page-1" fill="#2d4150" fill-rule="evenodd" stroke="none" stroke-width="1px"><path id="gfpp_cstomize_design_reg_up" fill="#2d4150" d="M16.872.786c-1.034-.92-2.761-1.722-6.596 1.821-1.778 1.642-3.428 4.56-4.468 6.778a3.243 3.243 0 0 0-.745-.097c-.723 0-1.468.242-2.06.79-2.253 2.08 1.235 3.218-3.003 5.2 0 0 .524.073 1.312.073 1.479 0 3.885-.26 5.502-1.754.867-.8 1.128-1.796.86-2.635 2.387-.964 5.476-2.466 7.226-4.083 3.836-3.543 2.969-5.139 1.972-6.093zM6.634 11.674c-.025.404-.249.82-.631 1.173-.802.741-1.993 1.182-2.985 1.36.317-.628.42-1.198.344-1.828-.075-.616-.121-1.023.453-1.553a1.813 1.813 0 0 1 1.547-.452c-.297.692-.51 1.261-.61 1.607.391-.096 1.041-.304 1.837-.598.019.096.051.188.045.291z" stroke="none" stroke-width="1px"></path></g></svg>