<svg xmlns="http://www.w3.org/2000/svg" width="18" height="18" viewBox="0 0 45 45" class="symbol symbol-gfpp_help"><path fill="#2d4150" d="M22.5 1.324c-11.695 0-21.176 9.482-21.176 21.176S10.806 43.676 22.5 43.676c11.695 0 21.176-9.482 21.176-21.176S34.194 1.324 22.5 1.324zm2.615 34.411h-5.294v-5.294h5.294v5.294zm6.242-17.632c-.175.654-.408 1.223-.704 1.705s-.63.903-1.001 1.26c-.371.36-.754.686-1.149.982s-.791.588-1.186.871c-.394.286-.76.593-1.093.926s-.503.704-.749 1.112c-.246.408-.36.884-.36 1.427v1.408h-5.294v-1.668c0-.815.204-1.519.413-2.112s.476-1.117.773-1.575c.294-.455.627-.852.987-1.186.357-.334.725-.649 1.096-.945s.717-.574 1.038-.834c.323-.259.606-.543.855-.852.246-.31.445-.649.593-1.019s.222-.802.222-1.297c0-1.136-.278-1.975-.834-2.52-.556-.543-1.329-.815-2.316-.815-.667 0-1.241.13-1.723.389s-.876.606-1.186 1.038c-.31.431-.537.649-.686 1.228s-.222 1.58-.222 1.58h-5.448c.024 0 .251-2.266.686-3.378.431-1.112 1.038-1.93 1.816-2.745s1.715-1.379 2.816-1.837c1.099-.455 2.327-.649 3.687-.649 1.755 0 3.216.259 4.391.741 1.173.482 2.118 1.091 2.835 1.805.715.717 1.228 1.496 1.538 2.321.31.829.463 1.604.463 2.319 0 .889-.087 1.665-.259 2.319z" stroke="none" stroke-width="1px"></path></svg>