<svg xmlns="http://www.w3.org/2000/svg" width="33" height="33" viewBox="0 0 33 33" class="symbol symbol-flip-horizontal symbol symbol-symbol-flip-horizontal"><path d="M16 23V9h2v14h-2zm-5.993-12c.246 0 .497.098.7.316L15 16l-4.293 4.684a.95.95 0 0 1-.7.316C9.493 21 9 20.571 9 19.924v-7.848C9 11.429 9.493 11 10.007 11zm.493 2.311v5.378L12.965 16 10.5 13.311zM19 16l3.823-4.483c.679-.973 2.177-.481 2.177.714v7.538c0 1.195-1.498 1.687-2.177.714L19 16z" class="st1" stroke="none" fill="#bcbcbc" stroke-width="1px"></path></svg>