<svg xmlns="http://www.w3.org/2000/svg" width="29" height="29" viewBox="0 0 29 29" class="symbol symbol-topBarSave btn-symbol top-bar-save-symbol"><g id="Page-1" fill="none" fill-rule="evenodd" stroke="none" stroke-width="1px"><g id="top_bar_save" fill="#2d4150" stroke="none" stroke-width="1px"><path id="Fill-1" d="M22 19.5c0 .827-.673 1.5-1.5 1.5H19v-6.5a.5.5 0 0 0-.5-.5h-7a.5.5 0 0 0-.5.5V21H9.5c-.827 0-1.5-.673-1.5-1.5v-10C8 8.673 8.673 8 9.5 8h9.33L22 10.715V19.5zM12 21h6v-6h-6v6zm7.2-14H9.5A2.502 2.502 0 0 0 7 9.5v10C7 20.879 8.121 22 9.5 22h11c1.379 0 2.5-1.121 2.5-2.5v-9.245L19.2 7zM13 18h4v-1h-4v1z" stroke="none" fill="#2d4150" stroke-width="1px"></path></g></g></svg>