<svg xmlns="http://www.w3.org/2000/svg" width="29" height="29" viewBox="0 0 29 29" class="symbol symbol-zoomOut_v2 btn-symbol"><g id="top_bar_zoom_mode" fill="#2d4150" fill-rule="evenodd" stroke="none" stroke-width="1px"><path id="Combined-Shape" d="M24 22.313l-.707.708-3.373-3.374A7.467 7.467 0 0 1 14.48 22c-4.136 0-7.5-3.364-7.5-7.5S10.343 7 14.48 7s7.5 3.364 7.5 7.5c0 1.633-.53 3.141-1.42 4.373l3.44 3.44zM14.48 21c3.584 0 6.5-2.916 6.5-6.5S18.064 8 14.48 8a6.508 6.508 0 0 0-6.5 6.5c0 3.584 2.915 6.5 6.5 6.5zM12 15v-1h5v1h-5z" stroke="none" fill="#2d4150" stroke-width="1px"></path></g></svg>